<svg xmlns="http://www.w3.org/2000/svg" viewBox="0 0 48 48"><title>23-ice cream</title><g id="_23-ice_cream" data-name="23-ice cream"><path d="M17.17,32.29A5.989,5.989,0,0,1,14,27a2.015,2.015,0,0,1,2-2H32a2.006,2.006,0,0,1,2,2,5.944,5.944,0,0,1-1.76,4.24,5.821,5.821,0,0,1-1.41,1.05A5.967,5.967,0,0,1,28,33H20A5.967,5.967,0,0,1,17.17,32.29Z" style="fill:#f2d1a5"/><path d="M16,28H32a2,2,0,0,1,1.68.925A6,6,0,0,0,34,27a2.006,2.006,0,0,0-2-2H16a2.015,2.015,0,0,0-2,2,5.98,5.98,0,0,0,.325,1.915,1.921,1.921,0,0,1,.265-.325A1.955,1.955,0,0,1,16,28Z" style="fill:#ffe4c2"/><path d="M18.75,28H16a1.955,1.955,0,0,0-1.41.59,1.921,1.921,0,0,0-.265.325,6.325,6.325,0,0,1-.226-.884A5.986,5.986,0,0,0,20,33h8a5.969,5.969,0,0,0,.761-.048A13.714,13.714,0,0,1,18.75,28Z" style="fill:#f2bb88"/><path d="M14.59,28.59A1.955,1.955,0,0,1,16,28h2.75a8.689,8.689,0,0,1-1.489-3H16a2.015,2.015,0,0,0-2,2,5.689,5.689,0,0,0,.085.966c0,.022.01.043.014.065a6.325,6.325,0,0,0,.226.884A1.921,1.921,0,0,1,14.59,28.59Z" style="fill:#f2d1a5"/><path d="M20,33h8a5.967,5.967,0,0,0,2.83-.71L29,47H19L17.17,32.29A5.967,5.967,0,0,0,20,33Z" style="fill:#f2bb88"/><rect x="25.095" y="41" width="2.01" height="2" transform="translate(-18.291 63.787) rotate(-84.284)" style="fill:#d6995c"/><rect x="20.9" y="40.995" width="2" height="2.01" transform="translate(-4.074 2.39) rotate(-5.716)" style="fill:#d6995c"/><path d="M28,33H20a5.967,5.967,0,0,1-2.83-.71l.264,2.122A5.947,5.947,0,0,0,20,35h.119l.485,4.1,1.991-.2-.39-3.9H25.8l-.39,3.9,1.991.2.485-4.1H28a5.947,5.947,0,0,0,2.566-.588l.264-2.122A5.967,5.967,0,0,1,28,33Z" style="fill:#d6995c"/><polygon points="18.751 45 19 47 29 47 29.249 45 18.751 45" style="fill:#d6995c"/><path d="M20,35c-.187,0-.37-.015-.552-.032a10.86,10.86,0,0,0,.927,2.2L20.119,35Z" style="fill:#f2d1a5"/><path d="M28,35h-.119L27.4,39.1l-1.991-.2L25.8,35h-3.59l.39,3.9-.957.1A13.283,13.283,0,0,0,25.1,41.91l.1-1.01,1.99.2-.174,1.74a15.443,15.443,0,0,0,2.4.751l1.406-11.3-.264,2.122A5.947,5.947,0,0,1,28,35Z" style="fill:#f2d1a5"/><path d="M25.205,40.9l-.1,1.01a14.829,14.829,0,0,0,1.917.93L27.2,41.1Z" style="fill:#e3a76f"/><path d="M20,35h.119l.256,2.164A11.618,11.618,0,0,0,21.638,39l.957-.1-.39-3.9H25.8l-.39,3.9,1.991.2.485-4.1H28a5.947,5.947,0,0,0,2.566-.588l.264-2.122A5.967,5.967,0,0,1,28,33H20a6,6,0,0,1-.946-.083,10.416,10.416,0,0,0,.394,2.051C19.63,34.985,19.813,35,20,35Z" style="fill:#e3a76f"/><path d="M32,25H16c-2.21,0-5-4-5-8V14c0,4.97,6.13,9,12.52,9C30.44,23,37,20.32,37,17,37,21,34.21,25,32,25Z" style="fill:#ff73a5"/><path d="M35,14c1.06,0,2,1.89,2,3,0,3.32-6.56,6-13.48,6C17.13,23,11,18.97,11,14a3.035,3.035,0,0,1,3-3c.96,3,5.16,5,10.48,5C30.87,16,33.07,15,35,14Z" style="fill:#ff8fb8"/><path d="M23.52,20c-5.6,0-11.006-3.1-12.251-7.215A2.926,2.926,0,0,0,11,14c0,4.97,6.13,9,12.52,9C30.44,23,37,20.32,37,17a3.867,3.867,0,0,0-.426-1.577C35.035,18.052,29.416,20,23.52,20Z" style="fill:#ff73a5"/><path d="M33,10c1.64.05,2,1.82,2,4-1.93,1-4.13,2-10.52,2-5.32,0-9.52-2-10.48-5,0-2.21.61-4,4-4,2.05,2,3.61,3,7,3h8Z" style="fill:#ffb9d5"/><path d="M25.48,13C20.16,13,15.96,11,15,8c0-.04,0-.078,0-.117A4.027,4.027,0,0,0,14,11c.96,3,5.16,5,10.48,5,6.39,0,8.59-1,10.52-2a9.079,9.079,0,0,0-.258-2.394C32.989,12.368,30.56,13,25.48,13Z" style="fill:#ffa1c8"/><path d="M33,10H25c-3.39,0-4.95-1-7-3,0-2.76,3.45-6,7-6a3.1,3.1,0,0,0,1,2C30.74,3,33,6.13,33,10Z" style="fill:#ffb9d5"/><path d="M36.8,17.96C35.685,20.82,29.757,23,23.52,23c-5.873,0-11.513-3.407-12.389-7.817A2.879,2.879,0,0,0,11,16c0,4.97,6.13,9,12.52,9,5.389,0,10.545-1.629,12.569-3.916a10.589,10.589,0,0,0,.809-2.772C36.869,18.2,36.838,18.079,36.8,17.96Z" style="fill:#ff8fb8"/><path d="M20.427,2.754A5.936,5.936,0,0,0,18,7c2.05,2,3.61,3,7,3h8a8.847,8.847,0,0,0-.224-2.006C26.818,7.939,21.855,5.733,20.427,2.754Z" style="fill:#ffa1c8"/><ellipse cx="27" cy="14" rx="1.148" ry="0.825" transform="translate(-1.988 23.202) rotate(-45.02)" style="fill:#fff04a"/><ellipse cx="17" cy="23" rx="1.148" ry="0.825" style="fill:#d261e8"/><ellipse cx="25.746" cy="17.5" rx="0.574" ry="0.413" transform="translate(-4.836 23.32) rotate(-44.98)" style="fill:#fff04a"/><ellipse cx="29.746" cy="22.5" rx="0.574" ry="0.413" transform="translate(-7.199 27.611) rotate(-44.98)" style="fill:#fff3c1"/><ellipse cx="28.746" cy="12.5" rx="0.574" ry="0.413" transform="translate(-0.423 23.978) rotate(-44.98)" style="fill:#fff3c1"/><ellipse cx="13.746" cy="14.5" rx="0.413" ry="0.574" style="fill:#d261e8"/><ellipse cx="24.746" cy="23.5" rx="0.413" ry="0.574" transform="translate(-9.37 24.369) rotate(-44.98)" style="fill:#d261e8"/><ellipse cx="32.746" cy="12.5" rx="0.413" ry="0.574" transform="translate(0.747 26.805) rotate(-44.98)" style="fill:#d261e8"/><ellipse cx="25.746" cy="6.5" rx="0.413" ry="0.574" style="fill:#a7e340"/><ellipse cx="15" cy="17" rx="0.825" ry="1.148" transform="translate(-7.628 15.594) rotate(-45.02)" style="fill:#a7e340"/><ellipse cx="28" cy="6" rx="0.825" ry="1.148" transform="translate(3.964 21.565) rotate(-45.02)" style="fill:#e0b8ff"/><ellipse cx="20" cy="19" rx="1.148" ry="0.825" transform="translate(-7.577 19.717) rotate(-45.02)" style="fill:#fff04a"/><ellipse cx="26" cy="20" rx="1.148" ry="0.825" transform="translate(-6.525 24.254) rotate(-45.02)" style="fill:#e0b8ff"/><ellipse cx="29" cy="10" rx="1.148" ry="0.825" transform="translate(1.427 23.444) rotate(-45.02)" style="fill:#a7e340"/><ellipse cx="34" cy="17" rx="1.148" ry="0.825" transform="translate(-2.058 29.033) rotate(-45.02)" style="fill:#e0b8ff"/><ellipse cx="21" cy="10" rx="0.825" ry="1.148" transform="translate(-0.923 17.771) rotate(-44.98)" style="fill:#fff3c1"/><path d="M32.484,19.434l.432-.652a.506.506,0,0,0,.025-.516A.5.5,0,0,0,32.5,18h-.691l-.362-.728a.519.519,0,0,0-.894,0L30.191,18H29.5a.5.5,0,0,0-.441.266.506.506,0,0,0,.025.516l.432.652-.455.839a.508.508,0,0,0,.055.564.5.5,0,0,0,.542.154L31,20.541l1.342.45a.508.508,0,0,0,.158.026.5.5,0,0,0,.384-.18.508.508,0,0,0,.055-.564Z" style="fill:#d261e8"/><path d="M23.484,6.434l.432-.652a.506.506,0,0,0,.025-.516A.5.5,0,0,0,23.5,5h-.691l-.362-.728a.519.519,0,0,0-.894,0L21.191,5H20.5a.5.5,0,0,0-.441.266.506.506,0,0,0,.025.516l.432.652-.455.839a.508.508,0,0,0,.055.564.5.5,0,0,0,.542.154L22,7.541l1.342.45a.508.508,0,0,0,.158.026.5.5,0,0,0,.384-.18.508.508,0,0,0,.055-.564Z" style="fill:#ff5f96"/><path d="M17.727,10.711l.215-.323a.253.253,0,0,0,.012-.256A.248.248,0,0,0,17.735,10h-.342l-.18-.361a.257.257,0,0,0-.443,0L16.59,10h-.342a.249.249,0,0,0-.206.388l.214.323-.226.416a.249.249,0,0,0,.3.356l.666-.223.665.223a.236.236,0,0,0,.078.013.245.245,0,0,0,.19-.09.248.248,0,0,0,.028-.279Z" style="fill:#fff04a"/><path d="M24.727,12.711l.215-.323a.253.253,0,0,0,.012-.256A.248.248,0,0,0,24.735,12h-.342l-.18-.361a.257.257,0,0,0-.443,0L23.59,12h-.342a.249.249,0,0,0-.206.388l.214.323-.226.416a.249.249,0,0,0,.3.356l.666-.223.665.223a.236.236,0,0,0,.078.013.245.245,0,0,0,.19-.09.248.248,0,0,0,.028-.279Z" style="fill:#a7e340"/><path d="M20.727,12.711l.215-.323a.253.253,0,0,0,.012-.256A.248.248,0,0,0,20.735,12h-.342l-.18-.361a.257.257,0,0,0-.443,0L19.59,12h-.342a.249.249,0,0,0-.206.388l.214.323-.226.416a.249.249,0,0,0,.3.356l.666-.223.665.223a.236.236,0,0,0,.078.013.245.245,0,0,0,.19-.09.248.248,0,0,0,.028-.279Z" style="fill:#ff5f96"/><rect x="26" y="24" width="2" height="2"/><rect x="22.38" y="38" width="8.04" height="2" transform="translate(-15.033 61.389) rotate(-84.291)"/><rect x="20.6" y="34.98" width="2" height="8.04" transform="translate(-3.777 2.345) rotate(-5.716)"/><path d="M38,17a4.767,4.767,0,0,0-2.013-3.74c-.053-1.339-.351-3.467-2.02-4.085a7.375,7.375,0,0,0-7.523-7.166A1.8,1.8,0,0,1,26,1a1,1,0,0,0-1-1c-3.6,0-7.247,2.912-7.89,6.044a4.108,4.108,0,0,0-4.081,4.1A4.056,4.056,0,0,0,10,14v3a10.857,10.857,0,0,0,3.7,8.1A2.972,2.972,0,0,0,13,27a7,7,0,0,0,3.228,5.887l1.78,14.237A1,1,0,0,0,19,48H29a1,1,0,0,0,.992-.876l.375-3-1.984-.248L28.117,46H19.883L18.357,33.8A6.954,6.954,0,0,0,20,34h8a6.954,6.954,0,0,0,1.643-.2l-1.01,8.079,1.984.248,1.155-9.237A7,7,0,0,0,35,27a2.972,2.972,0,0,0-.7-1.9A10.857,10.857,0,0,0,38,17ZM13.376,12.1a7.221,7.221,0,0,0,2.565,2.735l1.092-1.676a4.914,4.914,0,0,1-2.027-2.347c.029-1.758.485-2.707,2.6-2.807A9.382,9.382,0,0,0,25,11h3V9H25a7.393,7.393,0,0,1-5.966-2.4c.3-1.88,2.612-4.126,5.161-4.535a4.5,4.5,0,0,0,1.138,1.68A1,1,0,0,0,26,4c3.405,0,5.548,1.857,5.922,5H30v2h2.932c.3,0,.96.005,1.055,2.394C32.425,14.169,30.2,15,24.481,15a15.616,15.616,0,0,1-6.087-1.115l-.79,1.838A17.609,17.609,0,0,0,24.481,17c6.06,0,8.5-.86,10.632-1.935A3.135,3.135,0,0,1,36,17c0,2.312-5.452,5-12.481,5C17.49,22,12,18.187,12,14A2.034,2.034,0,0,1,13.376,12.1ZM33,27a5.006,5.006,0,0,1-5,5H20a5.006,5.006,0,0,1-5-5,1,1,0,0,1,1-1h8V24H16c-1.144,0-2.859-1.963-3.616-4.489A15.461,15.461,0,0,0,23.519,24a23.5,23.5,0,0,0,11.339-2.651C34.005,22.928,32.846,24,32,24H30v2h2A1,1,0,0,1,33,27Z"/></g></svg>